<?xml version="1.0" encoding="UTF-8" standalone="no"?>
<svg
   xmlns:dc="http://purl.org/dc/elements/1.1/"
   xmlns:cc="http://creativecommons.org/ns#"
   xmlns:rdf="http://www.w3.org/1999/02/22-rdf-syntax-ns#"
   xmlns:svg="http://www.w3.org/2000/svg"
   xmlns="http://www.w3.org/2000/svg"
   xmlns:sodipodi="http://sodipodi.sourceforge.net/DTD/sodipodi-0.dtd"
   xmlns:inkscape="http://www.inkscape.org/namespaces/inkscape"
   enable-background="new 0 0 32 32"
   height="32px"
   id="Layer_1"
   version="1.0"
   viewBox="0 0 32 32"
   width="32px"
   xml:space="preserve"
   sodipodi:docname="linkedin.svg"
   inkscape:version="0.92.3 (d244b95, 2018-08-02)"><metadata
     id="metadata31"><rdf:RDF><cc:Work
         rdf:about=""><dc:format>image/svg+xml</dc:format><dc:type
           rdf:resource="http://purl.org/dc/dcmitype/StillImage" /></cc:Work></rdf:RDF></metadata><defs
     id="defs29" /><sodipodi:namedview
     pagecolor="#ffffff"
     bordercolor="#666666"
     borderopacity="1"
     objecttolerance="10"
     gridtolerance="10"
     guidetolerance="10"
     inkscape:pageopacity="0"
     inkscape:pageshadow="2"
     inkscape:window-width="1366"
     inkscape:window-height="717"
     id="namedview27"
     showgrid="false"
     inkscape:zoom="7.375"
     inkscape:cx="16"
     inkscape:cy="16"
     inkscape:window-x="0"
     inkscape:window-y="27"
     inkscape:window-maximized="1"
     inkscape:current-layer="Layer_1" /><path
     style="fill:#1a1a1a"
     inkscape:connector-curvature="0"
     id="path2"
     d="m 32,30 c 0,1.104 -0.896,2 -2,2 H 2 C 0.896,32 0,31.104 0,30 V 2 C 0,0.896 0.896,0 2,0 h 28 c 1.104,0 2,0.896 2,2 z" /><g
     id="g10"><rect
       style="fill:#ffffff"
       id="rect4"
       y="11"
       x="7"
       width="4"
       height="14" /><path
       style="fill:#ffffff"
       inkscape:connector-curvature="0"
       id="path6"
       d="M 20.499,11 C 17.708,11 17.228,12.018 17,13 v -2 h -4 v 14 h 4 v -8 c 0,-1.297 0.703,-2 2,-2 1.266,0 2,0.688 2,2 v 8 h 4 v -7 c 0,-4 -0.521,-7 -4.501,-7 z" /><circle
       style="fill:#ffffff"
       id="circle8"
       r="2"
       cy="8"
       cx="9" /></g><g
     id="g14" /><g
     id="g16" /><g
     id="g18" /><g
     id="g20" /><g
     id="g22" /><g
     id="g24" /></svg>